<svg xmlns="http://www.w3.org/2000/svg" version="1.1" xmlns:xlink="http://www.w3.org/1999/xlink"
  xmlns:svgjs="http://svgjs.dev/svgjs" viewBox="0 0 600 600">
  <path
    d="M475.5235595703125,85.60209655761719C398.8219877878825,143.58639017740884,129.7120412190755,485.34031931559247,60.07853317260742,547.3822021484375C-9.554974873860672,609.4240849812826,57.984291076660156,487.9581044514974,57.722511291503906,457.8533935546875C57.460731506347656,427.7486826578776,59.81675465901693,395.811528523763,58.50785446166992,366.7539367675781C57.198954264322914,337.69634501139325,52.617801666259766,309.94763437906903,49.869110107421875,283.5078430175781C47.120418548583984,257.0680516560872,41.62303479512533,237.56544876098633,42.01570510864258,208.1151885986328C42.40837542215983,178.6649284362793,51.04712104797363,133.90052350362143,52.22513198852539,106.80628204345703C53.40314292907715,79.71204058329265,40.44502703348795,53.6649227142334,49.083770751953125,45.549739837646484C57.7225144704183,37.43455696105957,91.09947967529297,38.612567265828446,104.0575942993164,58.11518478393555C117.01570892333984,77.61780230204265,123.03664779663086,124.34555244445801,126.83245849609375,162.56544494628906C130.62826919555664,200.78533744812012,125.39266713460286,239.136110941569,126.83245849609375,287.4345397949219C128.27224985758463,335.7329686482747,132.85340627034506,413.3507843017578,135.47120666503906,452.35601806640625C138.08900705973306,491.3612518310547,127.48690541585286,507.46070353190106,142.5392608642578,521.4659423828125C157.59161631266275,535.471181233724,226.17800903320312,559.2932078043619,225.78533935546875,536.387451171875C225.39266967773438,513.4816945393881,140.18324279785156,412.565434773763,140.18324279785156,384.0314025878906C140.18324279785156,355.49737040201825,211.1256535847982,352.3560333251953,225.78533935546875,365.1832580566406C240.4450251261393,378.01048278808594,236.12565104166666,455.7591501871745,228.141357421875,460.9947509765625C220.15706380208334,466.2303517659505,166.3612518310547,403.0104726155599,177.87957763671875,396.59686279296875C189.3979034423828,390.1832529703776,283.24607849121094,434.42408752441406,297.2513122558594,422.5130920410156C311.2565460205078,410.6020965576172,281.15181732177734,343.32460530598956,261.9109802246094,325.1308898925781C242.6701431274414,306.9371744791667,187.30367024739584,318.8481801350911,181.80628967285156,313.3507995605469C176.30890909830728,307.8534189860026,206.15182749430338,293.45551045735675,228.92669677734375,292.1466064453125C251.70156606038412,290.83770243326825,305.62828063964844,290.8376922607422,318.45550537109375,305.49737548828125C331.28273010253906,320.1570587158203,313.3507792154948,358.7696278889974,305.8900451660156,380.1047058105469C298.42931111653644,401.4397837320964,270.2879587809245,413.87433369954425,273.69110107421875,433.5078430175781C277.094243367513,453.141352335612,317.67015584309894,477.2251332600911,326.30889892578125,497.90576171875C334.94764200846356,518.5863901774088,301.83245849609375,546.5968526204427,325.5235595703125,557.5916137695312C349.21466064453125,568.5863749186198,452.3560282389323,580.6282552083334,468.45550537109375,563.8743286132812C484.5549825032552,547.1204020182291,444.1099548339844,472.51307678222656,422.12042236328125,457.06805419921875C400.1308898925781,441.62303161621094,339.39789326985675,459.6858622233073,336.518310546875,471.2041931152344C333.63872782389325,482.72252400716144,402.7486826578776,532.3298746744791,404.8429260253906,526.1780395507812C406.9371693929036,520.0262044270834,351.047119140625,454.7120361328125,349.0837707519531,434.2931823730469C347.12042236328125,413.87432861328125,372.7748769124349,398.95287068684894,393.0628356933594,403.6649169921875C413.3507944742839,408.37696329752606,462.6963399251302,443.9790751139323,470.8115234375,462.5654602050781C478.9267069498698,481.15184529622394,430.23561604817706,501.9633331298828,441.7539367675781,515.1832275390625C453.2722574869792,528.4031219482422,518.3245900472006,534.8167622884115,539.9214477539062,541.8848266601562C561.5183054606119,548.952891031901,570.0261840820312,573.6910909016927,571.3350830078125,557.5916137695312C572.6439819335938,541.4921366373698,559.8167266845703,455.3664957682292,547.7748413085938,445.2879638671875C535.7329559326172,435.2094319661458,497.2513020833333,488.61256917317706,499.0837707519531,497.12042236328125C500.91623942057294,505.62827555338544,563.7434743245443,510.6021016438802,558.7696533203125,496.3350830078125C553.7958323160807,482.0680643717448,476.04712931315106,429.97381083170575,469.2408447265625,411.518310546875C462.43456013997394,393.06281026204425,516.623046875,399.47642517089844,517.9319458007812,385.6020812988281C519.2408447265625,371.7277374267578,502.87957763671875,335.73297627766925,477.09423828125,328.2722473144531C451.30889892578125,320.811518351237,380.8900655110677,345.811528523763,363.21990966796875,340.83770751953125C345.5497538248698,335.8638865152995,357.85340881347656,295.2879638671875,371.07330322265625,298.4293212890625C384.29319763183594,301.5706787109375,436.12566630045575,367.27747599283856,442.5392761230469,359.68585205078125C448.952885945638,352.09422810872394,443.97904713948566,276.43978627522785,409.5549621582031,252.87957763671875C375.1308771769206,229.31936899820963,277.09424082438153,218.0628204345703,235.99476623535156,218.32460021972656C194.89529164632162,218.5863800048828,184.81675338745117,257.0680567423503,162.95811462402344,254.45025634765625C141.0994758605957,251.83245595296225,102.09424336751302,215.05235290527344,104.84293365478516,202.6177978515625C107.5916239420573,190.18324279785156,168.45549138387045,194.37172190348306,179.45025634765625,179.84292602539062C190.44502131144205,165.3141301472982,170.54974365234375,138.87434069315592,170.8115234375,115.44502258300781C171.07330322265625,92.0157044728597,168.0628204345703,50.78534126281738,181.02093505859375,39.26701736450195C193.9790496826172,27.748693466186523,233.7696329752604,29.057593663533527,248.56021118164062,46.335079193115234C263.3507893880208,63.612564722696945,257.0680694580078,115.70679918924968,269.764404296875,142.9319305419922C282.4607391357422,170.1570618947347,309.29319763183594,204.31937408447266,324.73822021484375,209.6858673095703C340.18324279785156,215.05236053466797,364.92145284016925,167.8010482788086,362.4345397949219,175.13088989257812C359.9476267496745,182.46073150634766,323.42930603027344,250.91622670491537,309.8167419433594,253.6649169921875C296.2041778564453,256.41360727945965,275.9162190755208,212.4345499674479,280.7591552734375,191.62303161621094C285.6020914713542,170.81151326497397,327.7487030029297,148.0366439819336,338.8743591308594,128.79580688476562C350.00001525878906,109.55496978759766,329.71204630533856,69.5026143391927,347.5130920410156,76.17800903320312C365.3141377766927,82.85340372721355,420.2879638671875,138.6125742594401,445.6806335449219,168.84817504882812C471.07330322265625,199.08377583821616,482.72251892089844,229.97381591796875,499.8691101074219,257.59161376953125C517.0157012939453,285.20941162109375,539.7905426025391,339.0052235921224,548.5601806640625,334.5549621582031C557.3298187255859,330.1047007242839,558.3769836425781,278.9266923268636,552.4869384765625,230.89004516601562C546.5968933105469,182.85339800516763,519.6335245768229,82.8534026145935,513.2199096679688,46.335079193115234C506.80629475911456,9.816755771636963,530.3665059407552,7.722513516743978,514.0052490234375,11.780104637145996C497.6439921061198,15.837695757548016,409.0314229329427,56.413609663645424,415.0523681640625,70.68062591552734C421.0733133951823,84.94764216740926,532.5916544596354,75.91623306274414,550.1309204101562,97.3822021484375C567.6701863606771,118.84817123413086,532.7225240071615,201.43979136149088,520.2879638671875,199.4764404296875C507.85340372721356,197.51308949788412,552.2251313527426,27.617802937825523,475.5235595703125,85.60209655761719C398.8219877878825,143.58639017740884,129.7120412190755,485.34031931559247,60.07853317260742,547.3822021484375"
    fill="none" stroke-width="3" stroke="hsl(340, 45%, 30%)"
    transform="matrix(1,0,0,1,0.0024814605712890625,8.76901626586914)"></path>
</svg>