<svg width="410" height="510" viewBox="0 0 410 510" fill="none" xmlns="http://www.w3.org/2000/svg">
<path d="M409.5 0.5V509.5H145.189L1.5 382.773V104.54L147.161 0.5H409.5Z" stroke="white"/>
<path d="M134.416 0.5L68.2129 46.9072L68.2031 46.9141L1.48926 96.0176L0.504883 0.5H134.416Z" stroke="white"/>
<path d="M316.5 113.673V221.5H124.02L264.622 185.984L264.892 185.917L264.977 185.652L296.19 88.0449L316.5 113.673Z" stroke="white"/>
<path d="M257.613 179.09L210.369 192.518L120.559 216.83L128.975 119.305L201.646 77.9912L295.277 71.8643L257.613 179.09Z" stroke="white"/>
<path d="M8.15918 403.865L8.16602 403.872L8.17383 403.879L43.6738 434.379L43.6836 434.387L135.599 509.5H104.157L1.5 438.237V397.649L8.15918 403.865Z" stroke="white"/>
<path d="M31.7197 471.414L86.8955 509.5H1.5V450.942L31.7197 471.414Z" stroke="white"/>
</svg>
