<svg width="23" height="24" viewBox="0 0 23 24" fill="none" xmlns="http://www.w3.org/2000/svg">
  <path fill-rule="evenodd" clip-rule="evenodd"
    d="M11.4657 1.80664C5.12548 1.80664 0 6.85766 0 13.1065C0 18.1015 3.28407 22.3296 7.83995 23.8261C8.40955 23.9386 8.61819 23.583 8.61819 23.2838C8.61819 23.0218 8.59942 22.1239 8.59942 21.1883C5.40993 21.8619 4.74575 19.8413 4.74575 19.8413C4.23317 18.5317 3.4737 18.1951 3.4737 18.1951C2.42979 17.5029 3.54975 17.5029 3.54975 17.5029C4.70772 17.5778 5.31535 18.6628 5.31535 18.6628C6.34026 20.3838 7.9918 19.8976 8.65621 19.5982C8.75103 18.8685 9.05496 18.3634 9.37766 18.0829C6.83382 17.8209 4.15737 16.8481 4.15737 12.5077C4.15737 11.2729 4.61267 10.2627 5.33412 9.47707C5.2203 9.19651 4.82155 8.03639 5.44818 6.48366C5.44818 6.48366 6.4163 6.18427 8.59918 7.64355C9.53376 7.39621 10.4976 7.27038 11.4657 7.26932C12.4338 7.26932 13.4207 7.40042 14.3321 7.64355C16.5152 6.18427 17.4833 6.48366 17.4833 6.48366C18.1099 8.03639 17.7109 9.19651 17.5971 9.47707C18.3376 10.2627 18.7741 11.2729 18.7741 12.5077C18.7741 16.8481 16.0977 17.8021 13.5348 18.0829C13.9526 18.4383 14.313 19.1117 14.313 20.1781C14.313 21.6934 14.2943 22.9096 14.2943 23.2836C14.2943 23.583 14.5031 23.9386 15.0725 23.8263C19.6284 22.3294 22.9125 18.1015 22.9125 13.1065C22.9312 6.85766 17.787 1.80664 11.4657 1.80664Z"
    fill="white" />
</svg>