<svg width="116" height="131" viewBox="0 0 116 131" fill="none" xmlns="http://www.w3.org/2000/svg">
  <path
    d="M63.3274 24.1114L83.9387 36.0082C84.68 36.424 84.6981 37.5992 83.9387 37.997L59.4401 52.1356C58.6988 52.5695 57.831 52.5334 57.1259 52.1356L32.6454 37.997C31.9041 37.5811 31.8679 36.4059 32.6454 36.0082L53.2386 24.1114V0.824219L0.661621 31.1808V91.8938L20.839 80.2502V56.4568C20.821 55.607 21.8335 55.0104 22.5747 55.4624L47.0733 69.601C47.8146 70.035 48.2304 70.8124 48.2304 71.6079V99.8852C48.2485 100.735 47.2541 101.332 46.5128 100.88L25.9015 88.9829L5.70598 100.645L58.283 131.001L110.86 100.645L90.7007 89.001L70.0893 100.898C69.3661 101.332 68.3355 100.771 68.3717 99.9033V71.626C68.3717 70.7762 68.8418 70.0169 69.5288 69.6191L94.0093 55.4804C94.7325 55.0284 95.7631 55.607 95.745 56.4749V80.2683L115.922 91.9119V31.1808L63.3274 0.824219V24.1114Z"
    fill="white" />
</svg>